<?xml version="1.0" standalone="no"?>
<!DOCTYPE svg PUBLIC "-//W3C//DTD SVG 20010904//EN"
 "http://www.w3.org/TR/2001/REC-SVG-20010904/DTD/svg10.dtd">
<svg version="1.0" xmlns="http://www.w3.org/2000/svg"
 width="225.000000pt" height="225.000000pt" viewBox="0 0 225.000000 225.000000"
 preserveAspectRatio="xMidYMid meet">

<g transform="translate(0.000000,225.000000) scale(0.100000,-0.100000)"
fill="#000000" stroke="none">
<path d="M455 2241 c-89 -22 -178 -101 -211 -187 -18 -47 -19 -87 -19 -929 0
-842 1 -882 19 -929 24 -63 86 -130 151 -164 l50 -27 680 0 680 0 50 27 c64
34 118 90 147 153 l23 50 2 695 3 695 -280 313 -281 312 -492 -1 c-271 -1
-505 -4 -522 -8z m905 -436 l0 -285 255 0 255 0 0 -625 c0 -686 3 -656 -60
-709 l-32 -26 -653 0 -653 0 -32 26 c-63 54 -60 0 -60 939 0 939 -3 885 60
939 l32 26 444 0 444 0 0 -285z m285 18 c66 -75 122 -140 123 -145 2 -5 -54
-7 -125 -6 l-128 3 -3 143 c-1 78 1 142 5 141 5 0 62 -62 128 -136z"/>
<path d="M693 1308 l-52 -52 -29 21 -29 22 -34 -35 -33 -34 63 -63 62 -62 89
95 89 95 -32 33 c-17 17 -33 32 -37 32 -3 0 -29 -23 -57 -52z"/>
<path d="M960 1255 l0 -75 365 0 365 0 0 75 0 75 -365 0 -365 0 0 -75z"/>
<path d="M693 933 l-51 -58 -26 25 -27 24 -37 -38 -37 -38 60 -54 c33 -30 62
-54 65 -54 3 0 45 40 93 88 l87 88 -38 37 -38 38 -51 -58z"/>
<path d="M960 880 l0 -80 363 2 362 3 0 75 0 75 -362 3 -363 2 0 -80z"/>
<path d="M695 560 c-27 -27 -54 -50 -59 -50 -5 0 -19 9 -31 20 l-21 20 -34
-35 -34 -35 63 -63 62 -62 90 94 90 94 -33 34 c-17 18 -35 33 -38 33 -3 0 -28
-22 -55 -50z"/>
<path d="M960 505 l0 -75 365 0 365 0 0 75 0 75 -365 0 -365 0 0 -75z"/>
</g>
</svg>
