<?xml version="1.0" standalone="no"?>
<!DOCTYPE svg PUBLIC "-//W3C//DTD SVG 20010904//EN"
 "http://www.w3.org/TR/2001/REC-SVG-20010904/DTD/svg10.dtd">
<svg version="1.0" xmlns="http://www.w3.org/2000/svg"
 width="209.000000pt" height="241.000000pt" viewBox="0 0 209.000000 241.000000"
 preserveAspectRatio="xMidYMid meet">

<g transform="translate(0.000000,241.000000) scale(0.100000,-0.100000)"
fill="#000000" stroke="none">
<path d="M81 2392 c-19 -9 -44 -30 -55 -45 -21 -28 -21 -31 -21 -1142 0 -1111
0 -1114 21 -1142 46 -63 48 -63 494 -63 453 0 450 0 450 65 0 19 -6 37 -12 42
-7 4 -197 10 -423 13 l-410 5 0 1080 0 1080 895 0 895 0 5 -513 5 -514 24 -19
c31 -25 47 -24 77 6 l25 25 -3 517 -3 518 -23 36 c-44 72 3 69 -1005 69 -839
0 -904 -1 -936 -18z"/>
<path d="M427 1692 c-24 -26 -21 -77 5 -102 64 -59 160 38 98 100 -26 26 -81
26 -103 2z"/>
<path d="M742 1688 c-20 -25 -18 -70 4 -92 13 -14 61 -16 370 -16 341 0 355 1
374 20 24 24 25 48 4 78 l-15 22 -363 0 c-279 0 -366 -3 -374 -12z"/>
<path d="M430 1260 c-43 -43 -11 -120 48 -120 36 0 72 37 72 73 0 36 -33 67
-70 67 -17 0 -39 -9 -50 -20z"/>
<path d="M744 1245 c-29 -29 -26 -58 8 -88 20 -16 47 -18 374 -15 266 2 356 6
366 16 16 16 16 78 0 94 -10 10 -100 14 -368 16 l-354 3 -26 -26z"/>
<path d="M1839 923 c-27 -25 -49 -49 -49 -53 0 -5 48 -52 106 -106 l106 -98
44 46 c24 26 44 54 44 64 0 21 -155 180 -182 187 -15 4 -34 -7 -69 -40z"/>
<path d="M430 830 c-43 -43 -11 -120 50 -120 63 0 93 75 47 118 -29 27 -71 28
-97 2z"/>
<path d="M745 816 c-21 -15 -25 -67 -5 -90 10 -14 43 -16 206 -16 181 0 194 1
204 19 15 30 12 66 -8 84 -16 15 -45 17 -198 17 -136 0 -185 -3 -199 -14z"/>
<path d="M1515 588 l-200 -209 -32 -127 c-49 -190 -58 -179 105 -125 l137 45
155 162 c86 88 177 184 203 212 l47 51 -108 100 -107 100 -200 -209z"/>
</g>
</svg>
