<?xml version="1.0" standalone="no"?>
<!DOCTYPE svg PUBLIC "-//W3C//DTD SVG 20010904//EN"
 "http://www.w3.org/TR/2001/REC-SVG-20010904/DTD/svg10.dtd">
<svg version="1.0" xmlns="http://www.w3.org/2000/svg"
 width="512.000000pt" height="512.000000pt" viewBox="0 0 512.000000 512.000000"
 preserveAspectRatio="xMidYMid meet">

<g transform="translate(0.000000,512.000000) scale(0.100000,-0.100000)"
fill="#000000" stroke="none">
<path d="M1215 4043 c-74 -21 -137 -102 -143 -184 -8 -110 -31 -83 601 -716
l581 -583 -575 -577 c-362 -363 -582 -592 -592 -615 -20 -44 -22 -127 -3 -171
17 -41 71 -95 113 -113 44 -19 127 -18 171 3 23 10 252 230 615 592 l577 575
578 -575 c362 -362 591 -582 614 -592 44 -21 127 -22 171 -3 42 18 96 72 113
113 19 44 17 127 -3 171 -10 24 -229 250 -592 614 l-576 578 582 582 c633 635
609 607 601 718 -5 65 -31 108 -95 157 -32 25 -45 28 -112 28 -64 0 -82 -4
-111 -24 -19 -13 -290 -279 -602 -590 l-568 -566 -567 566 c-313 311 -583 576
-601 589 -34 23 -132 36 -177 23z"/>
</g>
</svg>
